<svg width="552" height="132" viewBox="0 0 552 132" fill="none" xmlns="http://www.w3.org/2000/svg">
<g clip-path="url(#clip0_243_486)">
<path d="M397.21 76.27C394.54 78.07 391.79 80.12 389.04 82.38C386.2 84.71 383.44 87.11 380.83 89.51C380.32 89.98 379.82 90.45 379.32 90.92L391.16 73.67H378.21L377.77 74.35C374.18 79.89 370.64 85.4 367.16 90.83C366.15 91.59 365.12 92.28 364.06 92.88C361.61 94.27 358.97 94.97 356.2 94.97C353.14 94.97 350.82 94.14 349.12 92.44C347.38 90.7 346.45 88.89 346.29 86.95C346.07 82.75 344.68 79.25 342.16 76.57C339.59 73.83 335.97 72.44 331.4 72.44C327.68 72.44 323.94 73.17 320.28 74.6C316.67 76.01 313.2 77.92 309.98 80.26C306.77 82.59 303.75 85.26 301.01 88.21C299.66 89.66 298.38 91.15 297.19 92.64C294.59 93.77 292.12 94.35 289.86 94.35C288.05 94.35 286.16 93.91 284.24 93.04C282.57 92.29 281.26 91.34 280.31 90.24C280.39 89.54 280.5 88.83 280.61 88.1C280.77 87.07 280.86 85.94 280.86 84.74C280.86 80.44 280.26 77.44 279.02 75.55C277.66 73.49 275.99 72.44 274.04 72.44C272.23 72.44 270.76 73.19 269.77 74.6C268.88 75.87 268.44 77.28 268.44 78.81C268.44 80.14 268.69 81.37 269.18 82.46C269.5 83.18 269.66 83.85 269.66 84.44C269.66 87.55 268.58 91.46 266.45 96.06C264.27 100.76 261.46 105.38 258.1 109.78C254.75 114.17 251.01 117.93 246.97 120.98C243.1 123.91 239.31 125.39 235.7 125.39C233.54 125.39 232.03 124.9 231.21 123.94C230.32 122.89 229.89 121.67 229.89 120.19C229.89 117.39 230.86 113.98 232.78 110.04C234.77 105.95 237.17 101.79 239.91 97.66C242.67 93.49 245.54 89.45 248.45 85.65C251.39 81.79 253.83 78.6 255.75 76.06L257.58 73.65H243.83L243.39 74.36C241.8 76.94 239.68 79.97 237.09 83.36C234.45 86.81 231.82 90.44 229.28 94.15C227.04 97.42 225.05 100.68 223.32 103.88C220.04 107.68 216.8 111.1 213.67 114.07C209.9 117.64 206.37 120.47 203.17 122.49C200.13 124.41 197.66 125.38 195.83 125.38C193.9 125.38 193.22 124.74 193.22 122.92C193.22 121.34 193.98 119.03 195.49 116.07C197.08 112.94 199.23 109.24 201.88 105.09C204.54 100.92 207.63 96.3 211.05 91.37C214.45 86.46 218.08 81.3 221.84 76.02L223.53 73.65H209.85L205.9 80.71C205.77 80.37 205.62 80.03 205.47 79.7C204.84 78.32 203.93 77.06 202.78 75.97C201.62 74.87 200.17 73.99 198.46 73.37C196.78 72.75 194.81 72.44 192.62 72.44C188.1 72.44 183.28 74 178.29 77.08C173.42 80.09 168.86 83.89 164.74 88.37C160.61 92.86 157.16 97.73 154.47 102.84C153.78 104.15 153.18 105.44 152.66 106.7C150.16 109.43 147.69 111.92 145.27 114.15C141.45 117.67 137.84 120.48 134.55 122.5C131.4 124.42 128.67 125.4 126.43 125.4C125.42 125.4 124.58 125.23 124.58 123.1C124.58 122.07 124.88 120.77 125.47 119.22C126.1 117.58 127.26 115.3 128.94 112.44C130.62 109.57 133.01 105.78 136.05 101.17C139.17 96.44 143.11 90.54 147.76 83.6C152.53 76.5 158.26 67.95 164.96 57.96C171.58 48.08 179.3 36.46 188.55 22.42L190.08 20.09H175.82L175.38 20.79C167.61 33.09 160.66 43.97 154.7 53.11C148.54 62.56 143.44 70.32 139.11 76.84C134.7 83.49 130.99 89.1 128 93.66C125.01 98.21 122.57 102.16 120.72 105.38C118.85 108.65 117.51 111.51 116.72 113.87C115.91 116.29 115.5 118.68 115.5 120.96C115.5 123.69 116.33 125.93 117.97 127.63C119.63 129.35 122.27 130.22 125.82 130.22C129.02 130.22 132.58 129.07 136.4 126.81C140.08 124.63 144.5 121.14 149.53 116.41C149.82 116.13 150.12 115.84 150.42 115.56C150.37 116.15 150.35 116.73 150.35 117.3C150.35 120.52 151.2 123.46 152.88 126.03C154.69 128.8 157.77 130.21 162.05 130.21C164.48 130.21 167.05 129.6 169.67 128.4C172.18 127.25 174.64 125.82 176.99 124.15C179.32 122.49 181.53 120.68 183.54 118.77C183.88 118.44 184.22 118.13 184.54 117.81C184.27 118.94 184.13 120.1 184.13 121.25C184.13 123.66 184.96 125.77 186.59 127.52C188.25 129.3 190.79 130.2 194.15 130.2C197.99 130.2 202.12 128.7 206.41 125.75C210.53 122.91 214.71 119.34 218.81 115.14C219.1 114.84 219.39 114.52 219.68 114.22C219.62 114.79 219.58 115.36 219.58 115.92C219.58 120.92 220.91 124.6 223.52 126.87C226.07 129.08 229.71 130.2 234.32 130.2C238.93 130.2 243.79 129.02 248.59 126.7C253.3 124.43 257.78 121.46 261.93 117.89C266.05 114.33 269.74 110.36 272.89 106.08C275.55 102.46 277.56 98.88 278.89 95.4C280.02 96.19 281.29 96.91 282.68 97.57C285.82 99.07 289.31 99.43 292.8 98.92C291.27 101.43 290.01 103.94 289.08 106.41C287.9 109.5 287.31 112.3 287.31 114.7C287.31 119.32 288.56 123.08 291.03 125.89C293.55 128.75 297.25 130.2 302.05 130.2C306.85 130.2 311.99 128.91 316.76 126.37C321.42 123.88 325.76 120.73 329.65 117C333.53 113.28 336.91 109.14 339.7 104.7C341.92 101.16 343.61 97.73 344.74 94.47C345.74 95.53 346.92 96.49 348.28 97.34C350.54 98.75 353.26 99.47 356.38 99.47C358.32 99.47 360.3 99.14 362.28 98.49C361.82 99.21 361.35 99.95 360.89 100.67C355.43 109.27 349.9 118.02 344.45 126.7L343.01 129H356.61L357 128.08C358.59 124.3 360.48 120.58 362.61 117.01C364.73 113.46 366.8 110.57 368.76 108.41C374.27 102.2 379.56 96.73 384.48 92.16C388.05 88.84 391.44 85.97 394.59 83.57C394.38 84.58 394.28 85.63 394.28 86.72C394.28 90.67 395.43 93.81 397.69 96.07C399.95 98.33 402.94 99.48 406.59 99.48C408.59 99.48 410.57 99.11 412.45 98.39C414.27 97.69 416.01 96.8 417.62 95.73C419.18 94.69 420.67 93.55 422.04 92.33C423.37 91.15 424.57 90.03 425.61 89L426.9 87.71L423.5 85.45L422.63 86.22C421.74 87.01 420.68 87.92 419.47 88.93C418.3 89.9 417.06 90.85 415.77 91.74C414.54 92.59 413.23 93.31 411.86 93.87C410.58 94.4 409.26 94.67 407.94 94.67C406.62 94.67 405.61 94.2 404.73 93.2C403.82 92.17 403.36 90.67 403.36 88.72C403.36 86.05 404.08 83.66 405.55 81.4C407.11 79.02 408.73 76.97 410.38 75.32L412.59 73.11L409.48 72.77C408.54 72.67 407.63 72.59 406.74 72.54C405.84 72.49 404.81 72.46 403.69 72.46L397.21 76.28V76.27ZM303.11 125.41C301.58 125.41 300.53 124.9 299.79 123.8C298.95 122.54 298.52 120.72 298.52 118.39C298.52 115.82 299.01 113.01 299.97 110.02C300.95 106.99 302.31 103.91 304.03 100.86C305.76 97.79 307.75 94.78 309.93 91.9C312.1 89.05 314.41 86.51 316.81 84.35C319.21 82.2 321.6 80.45 323.92 79.14C326.12 77.9 328.17 77.28 330.03 77.28C331.77 77.28 332.99 77.8 333.76 78.87C334.64 80.09 335.07 81.57 335.07 83.39C335.07 85.77 334.63 88.47 333.76 91.41C332.87 94.41 331.65 97.54 330.12 100.69C328.59 103.85 326.76 106.96 324.69 109.92C322.62 112.87 320.36 115.54 317.96 117.84C315.58 120.13 313.07 121.99 310.52 123.39C308.07 124.73 305.57 125.41 303.1 125.41H303.11ZM163.63 122.27C162.87 121.28 162.49 119.77 162.49 117.78C162.49 113.45 163.6 108.85 165.78 104.1C168 99.27 170.77 94.79 174.02 90.8C177.26 86.82 180.75 83.51 184.37 80.96C187.85 78.51 190.99 77.28 193.7 77.28C195.25 77.28 196.51 77.75 197.55 78.71C198.56 79.64 199.05 81.02 199.05 82.93C199.05 85.68 198.47 88.63 197.32 91.69C196.14 94.83 194.6 97.97 192.73 101.02C190.86 104.08 188.68 107 186.27 109.71C183.85 112.43 181.37 114.86 178.89 116.94C176.44 119 174.06 120.66 171.83 121.87C169.73 123.01 167.92 123.59 166.46 123.59C165.2 123.59 164.3 123.17 163.62 122.28L163.63 122.27Z" fill="#1E2E38"/>
<path d="M330.45 67.8899C331.36 67.8899 332.24 67.95 333.09 68.04L373.93 7.44995H294.8L283.29 24.38H342.36L308.02 75.2C310.98 73.2899 314.09 71.6799 317.3 70.4199C321.61 68.7299 326.03 67.8799 330.44 67.8799L330.45 67.8899Z" fill="#1E2E38"/>
<path d="M547.17 53.64C548.63 51.47 549.69 49.07 550.35 46.44C551.01 43.82 551.34 40.91 551.34 37.73C551.34 28.08 548.24 20.32 542.04 14.43C535.84 8.54998 527.62 5.59998 517.39 5.59998C507.16 5.59998 498.1 8.59998 491.31 14.58C484.63 20.57 481.29 28.36 481.29 37.96C481.29 48.35 485.98 56.72 495.36 63.08C479.67 69.55 471.83 80.52 471.83 96C471.83 106.65 475.46 115.32 482.72 122C490.14 128.63 499.6 131.94 511.1 131.94C522.6 131.94 531.74 128.47 539.17 121.52C546.54 114.63 550.22 105.81 550.22 95.04C550.22 81.58 544.55 71.51 533.21 64.83C536.44 63.24 539.21 61.52 541.52 59.66C543.83 57.81 545.71 55.79 547.17 53.62V53.64ZM526.46 109.46C522.38 113.54 517.16 115.58 510.8 115.58C504.44 115.58 499.54 113.7 495.46 109.94C491.48 106.23 489.5 101.38 489.5 95.39C489.5 89.03 491.54 83.86 495.62 79.89C499.65 75.86 504.97 73.85 511.6 73.85C517.75 73.85 522.78 75.68 526.71 79.34C530.63 83 532.59 87.74 532.59 93.57C532.59 99.93 530.55 105.23 526.47 109.47L526.46 109.46ZM528.6 50.7C525.15 53.83 520.86 55.39 515.72 55.39C510.58 55.39 506.82 53.88 503.64 50.86C500.46 47.84 498.87 43.97 498.87 39.25C498.87 34.53 500.57 30.24 503.96 27.01C507.4 23.72 511.67 22.08 516.76 22.08C521.85 22.08 525.88 23.59 529 26.61C532.13 29.63 533.69 33.58 533.69 38.46C533.69 43.34 531.99 47.52 528.6 50.7Z" fill="#1E2E38"/>
<path d="M386.04 69.19H388.36C397.23 64.5 405.14 62.15 412.1 62.15C419.73 62.15 425.75 64.38 430.15 68.83C434.49 73.1199 436.7 78.96 436.81 86.33C436.81 86.51 436.83 86.6899 436.83 86.88C436.83 87.36 436.8 87.7999 436.78 88.27C436.54 96.46 434.24 103 429.83 107.87C425.11 113.07 418.86 115.66 411.07 115.66C405.4 115.66 400.44 114.41 396.2 111.92C392.41 109.59 388.39 105.63 384.15 100.08C379.71 103.66 376.23 107.32 372.94 112.03L372.92 112.05L372.9 112.07C372.85 112.12 372.8 112.18 372.75 112.24C382.3 125.37 395.14 131.95 411.3 131.95C424.23 131.95 434.68 127.87 442.63 119.71C450.58 111.55 454.56 100.79 454.56 87.43C454.56 75.19 451.35 65.54 444.94 58.49C438.53 51.44 429.73 47.9199 418.54 47.9199C417.16 47.9199 415.66 48.01 414.05 48.2C412.43 48.3899 410.7 48.66 408.84 49.0299L416.95 24.38H454.64L456.71 7.44995H405.83L386.05 69.19H386.04Z" fill="#1E2E38"/>
<path d="M77.8801 36.52C101.73 44.72 112.47 33.22 124.06 27.7C136.64 21.71 155.72 19.66 164.53 24.96C164.76 16.3 150.75 0.639988 131.94 0.0299884C114.81 -0.530012 110.31 6.10999 88.0901 14.75C74.5701 20.01 66.9201 12.2 62.1001 5.58999C57.1401 19.86 70.0901 33.85 77.8801 36.53V36.52Z" fill="#1E2E38"/>
<path d="M99.5499 44.56C82.4199 44 77.9199 50.64 55.6999 59.28C42.1799 64.54 34.5299 56.73 29.7099 50.12C24.7499 64.39 37.6999 78.38 45.4899 81.06C69.3399 89.26 80.0799 77.76 91.6699 72.24C104.25 66.25 123.33 64.2 132.14 69.5C132.37 60.84 118.36 45.18 99.5499 44.57V44.56Z" fill="#1E2E38"/>
<path d="M0 110.86C0 120.44 7 125.24 14.3 125.24C21.6 125.24 28.6 119.96 28.6 109.91V94.7C28.6 94.7 0 92.12 0 110.86Z" fill="#1E2E38"/>
</g>
<defs>
<clipPath id="clip0_243_486">
<rect width="551.34" height="131.96" fill="white"/>
</clipPath>
</defs>
</svg>
