<svg width="35" height="35" viewBox="0 0 35 35" fill="none" xmlns="http://www.w3.org/2000/svg">
<path d="M12.9288 8.21429H10.9591L8.07143 11.5825V14.643C8.07145 15.4173 8.29834 15.9073 8.57045 16.2319C8.855 16.5712 9.24767 16.7975 9.66322 16.9311C9.98285 17.0339 10.285 17.0717 10.5001 17.0717C11.6153 17.0717 12.1614 16.6488 12.4669 16.2123C12.8128 15.7182 12.9288 15.0833 12.9288 14.643V8.21429ZM26.6427 12.9282V11.5825L23.755 8.21429H21.7853V14.643C21.7853 14.7012 21.784 14.7588 21.7824 14.8159C21.7814 15.6278 22.1166 16.1346 22.548 16.475C22.9814 16.817 23.0557 17.4458 22.714 17.8793C22.3719 18.3129 21.7423 18.3875 21.3087 18.0453C21.1316 17.9056 20.9639 17.7488 20.8078 17.5766C20.5716 17.8552 20.3045 18.0922 20.0148 18.2875C19.0951 18.9077 18.047 19.0717 17.3576 19.0717C16.6157 19.0717 15.5417 18.8442 14.6261 18.1782C14.3836 18.0017 14.1556 17.7968 13.9503 17.562C13.2423 18.4471 12.12 19.0717 10.5001 19.0717C10.4537 19.0717 10.4061 19.0666 10.3576 19.0649V23.9282H21.9288C22.4809 23.9283 22.9286 24.3762 22.9288 24.9282C22.9288 25.4804 22.481 25.928 21.9288 25.9282H9.35756C8.80527 25.9282 8.35756 25.4804 8.35756 24.9282V18.5493C7.89168 18.3137 7.4278 17.9816 7.03822 17.517C6.44082 16.8045 6.07145 15.8498 6.07143 14.643V11.2143C6.07143 10.9756 6.15729 10.7451 6.31264 10.5639L9.74037 6.5639C9.93035 6.34226 10.2082 6.21429 10.5001 6.21429H24.214C24.5059 6.21429 24.7838 6.34226 24.9738 6.5639L28.4025 10.5639C28.5576 10.7451 28.6427 10.9758 28.6427 11.2143V12.9282C28.6427 13.4804 28.195 13.9282 27.6427 13.9282C27.0905 13.9281 26.6427 13.4804 26.6427 12.9282ZM14.9288 14.643C14.9289 15.6628 15.3387 16.2233 15.8029 16.561C16.3158 16.934 16.9566 17.0717 17.3576 17.0717C17.7876 17.0716 18.4063 16.96 18.8966 16.6293C19.3333 16.3349 19.7488 15.8182 19.7833 14.7817C19.7848 14.7366 19.7853 14.6904 19.7853 14.643V8.21429H14.9288V14.643Z" fill="black"/>
<path d="M24.3571 27.5219V15.2143C24.3571 14.662 24.8049 14.2143 25.3571 14.2143C25.9094 14.2143 26.3571 14.662 26.3571 15.2143V27.5219C26.3571 28.0742 25.9094 28.5219 25.3571 28.5219C24.8049 28.5219 24.3571 28.0742 24.3571 27.5219Z" fill="black"/>
<path d="M31.643 20.5C32.1952 20.5001 32.643 20.9478 32.643 21.5C32.643 22.0522 32.1952 22.4999 31.643 22.5H19.3354C18.7831 22.5 18.3354 22.0523 18.3354 21.5C18.3354 20.9477 18.7831 20.5 19.3354 20.5H31.643Z" fill="black"/>
</svg>
