<svg width="21" height="22" viewBox="0 0 21 22" fill="none" xmlns="http://www.w3.org/2000/svg">
<path d="M5.59523 6.5594C9.65381 7.95481 11.4815 5.99784 13.4537 5.05849C15.5945 4.03917 18.8414 3.69031 20.3406 4.59222C20.3797 3.11854 17.9956 0.453655 14.7947 0.34985C11.8797 0.254554 11.1139 1.38449 7.33267 2.85477C5.03196 3.74987 3.73015 2.42084 2.90992 1.296C2.06587 3.72435 4.26959 6.10505 5.59523 6.56111V6.5594Z" fill="#1E2E38"/>
<path d="M13.4336 7.92761C10.5186 7.83231 9.7528 8.96225 5.97159 10.4325C3.67087 11.3276 2.36906 9.99859 1.54884 8.87376C0.704786 11.3021 2.90851 13.6828 4.23414 14.1389C8.29273 15.5343 10.1204 13.5773 12.0927 12.638C14.2334 11.6186 17.4803 11.2698 18.9795 12.1717C19.0186 10.698 16.6345 8.03312 13.4336 7.92931V7.92761Z" fill="#1E2E38"/>
<path d="M0 19.2099C0 20.8402 1.1912 21.657 2.43345 21.657C3.6757 21.657 4.8669 20.7585 4.8669 19.0483V16.46C4.8669 16.46 0 16.0209 0 19.2099Z" fill="#1E2E38"/>
</svg>
