<svg width="11" height="14" viewBox="0 0 11 14" fill="none" xmlns="http://www.w3.org/2000/svg">
<path d="M9.84863 2.33301C9.84855 2.10809 9.75865 1.89244 9.59961 1.7334C9.4405 1.57438 9.22496 1.48438 9 1.48438H2.33301C2.10809 1.48446 1.89244 1.57435 1.7334 1.7334C1.57435 1.89244 1.48446 2.10809 1.48438 2.33301V12.0576L5.38477 9.27246L5.4502 9.23242C5.60882 9.15328 5.80067 9.16705 5.94824 9.27246L9.84863 12.0576V2.33301ZM10.8184 13C10.8184 13.1814 10.7168 13.3475 10.5557 13.4307C10.3942 13.5137 10.1995 13.5 10.0518 13.3945L5.66602 10.2627L1.28223 13.3945C1.13444 13.5001 0.939809 13.5138 0.77832 13.4307C0.616855 13.3476 0.515625 13.1816 0.515625 13V2.33301C0.515711 1.85091 0.706953 1.38875 1.04785 1.04785C1.38875 0.706953 1.85091 0.515711 2.33301 0.515625H9C9.48221 0.515625 9.94516 0.706876 10.2861 1.04785C10.6268 1.38872 10.8183 1.85107 10.8184 2.33301V13Z" fill="#AFC5D4"/>
</svg>
