<svg width="20" height="20" viewBox="0 0 20 20" fill="none" xmlns="http://www.w3.org/2000/svg">
<g clip-path="url(#clip0_180_230)">
<path d="M17.4996 9.99969C17.4995 5.85771 14.1417 2.49969 9.99963 2.49969C5.85776 2.49987 2.49981 5.85782 2.49963 9.99969C2.49963 14.1417 5.85765 17.4995 9.99963 17.4997C14.1418 17.4997 17.4996 14.1418 17.4996 9.99969ZM19.1666 9.99969C19.1666 15.0623 15.0622 19.1667 9.99963 19.1667C4.93717 19.1665 0.833618 15.0622 0.833618 9.99969C0.833794 4.93734 4.93728 0.833855 9.99963 0.833679C15.0621 0.833679 19.1665 4.93723 19.1666 9.99969Z" fill="black"/>
<path d="M13.2694 5.67568C13.5689 5.57586 13.8997 5.65463 14.1229 5.87782C14.3459 6.10101 14.4239 6.43108 14.3241 6.73036L12.5575 12.0302C12.4746 12.279 12.279 12.4746 12.0302 12.5575L6.73036 14.3241C6.43108 14.4239 6.10101 14.3459 5.87782 14.1229C5.65463 13.8997 5.57586 13.5689 5.67568 13.2694L7.44325 7.96962L7.47939 7.8788C7.57572 7.6739 7.75219 7.51583 7.96962 7.44325L13.2694 5.67568ZM8.89247 8.89247L7.78407 12.2157L11.1073 11.1073L12.2157 7.78407L8.89247 8.89247Z" fill="black"/>
</g>
<defs>
<clipPath id="clip0_180_230">
<rect width="20" height="20" fill="white"/>
</clipPath>
</defs>
</svg>
