<svg width="43" height="43" viewBox="0 0 43 43" fill="none" xmlns="http://www.w3.org/2000/svg">
<g clip-path="url(#clip0_509_6530)">
<path d="M36.8906 11.4821C37.3284 11.1456 37.9564 11.2278 38.2929 11.6656C38.6294 12.1035 38.5471 12.7314 38.1093 13.068C34.6302 15.7427 34.6303 21.1071 38.1093 23.7819C38.5471 24.1184 38.6293 24.7464 38.2929 25.1842C37.9563 25.6221 37.3284 25.7044 36.8906 25.3678C32.3698 21.8925 32.3698 14.9573 36.8906 11.4821Z" fill="black"/>
<path d="M2.5 17.2512V13.3C2.5 12.7477 2.94772 12.3 3.5 12.3C4.05228 12.3 4.5 12.7477 4.5 13.3V17.2512C4.5 17.4771 4.62449 17.7695 4.93066 18.0334C5.23457 18.2952 5.63256 18.4504 6 18.4504C6.36744 18.4504 6.76543 18.2952 7.06934 18.0334C7.37551 17.7695 7.5 17.4771 7.5 17.2512V13.3C7.5 12.7477 7.94772 12.3 8.5 12.3C9.05228 12.3 9.5 12.7477 9.5 13.3V17.2512C9.5 18.1986 9.00392 19.006 8.375 19.548C7.74376 20.092 6.89187 20.4504 6 20.4504C5.10813 20.4504 4.25624 20.092 3.625 19.548C2.99608 19.006 2.5 18.1986 2.5 17.2512Z" fill="black"/>
<path d="M5 31.7502V13.3C5 12.7477 5.44772 12.3 6 12.3C6.55228 12.3 7 12.7477 7 13.3V31.7502C6.99989 32.3024 6.55222 32.7502 6 32.7502C5.44778 32.7502 5.00011 32.3024 5 31.7502Z" fill="black"/>
<path d="M36.5 32.775V12.275C36.5 11.7227 36.9477 11.275 37.5 11.275C38.0523 11.275 38.5 11.7227 38.5 12.275V32.775C38.5 33.3273 38.0523 33.775 37.5 33.775C36.9477 33.775 36.5 33.3273 36.5 32.775Z" fill="black"/>
<path d="M30.5 21.5C30.5 16.3679 26.4474 12.25 21.5 12.25C16.5526 12.25 12.5 16.3679 12.5 21.5C12.5 26.6321 16.5526 30.75 21.5 30.75C26.4474 30.75 30.5 26.6321 30.5 21.5ZM32.5 21.5C32.5 27.6898 27.5983 32.75 21.5 32.75C15.4017 32.75 10.5 27.6898 10.5 21.5C10.5 15.3102 15.4017 10.25 21.5 10.25C27.5983 10.25 32.5 15.3102 32.5 21.5Z" fill="black"/>
<path d="M19.3838 15.9378C20.2 15.4461 21.1631 15.2652 22.1006 15.43C23.0375 15.5948 23.8818 16.0933 24.4873 16.8304C25.092 17.5667 25.4209 18.4946 25.4199 19.4495L25.4072 19.7337C25.2812 21.1212 24.2498 22.0593 23.4844 22.5824C23.0486 22.8802 22.6189 23.0985 22.3027 23.2425C22.1433 23.3151 22.0089 23.3707 21.9121 23.4085C21.8637 23.4274 21.8245 23.442 21.7959 23.4525C21.7816 23.4577 21.7696 23.462 21.7607 23.4652C21.7565 23.4667 21.7529 23.4681 21.75 23.4691C21.7486 23.4696 21.7472 23.4697 21.7461 23.4701L21.7441 23.471C21.7438 23.4711 21.7432 23.471 21.4199 22.5247L21.7432 23.471C21.2205 23.6496 20.6522 23.3706 20.4736 22.848C20.2954 22.3257 20.5736 21.7572 21.0957 21.5785H21.0967C21.0994 21.5775 21.1045 21.576 21.1113 21.5736C21.1266 21.568 21.1513 21.5582 21.1846 21.5452C21.2517 21.519 21.3521 21.4785 21.4736 21.4232C21.7199 21.311 22.0414 21.1456 22.3555 20.931C23.039 20.4639 23.4199 19.9553 23.4199 19.4495V19.4486C23.4206 18.9519 23.2497 18.4742 22.9424 18.0999C22.6354 17.7262 22.2133 17.4805 21.7539 17.3997C21.2949 17.319 20.8214 17.4066 20.416 17.6507C20.0101 17.8952 19.6963 18.283 19.5361 18.7493C19.3569 19.2717 18.7879 19.5496 18.2656 19.3704C17.7432 19.1912 17.4643 18.6223 17.6436 18.0999C17.9537 17.1965 18.5683 16.4291 19.3838 15.9378Z" fill="black"/>
<path d="M21.5098 25.625C22.0621 25.625 22.5098 26.0727 22.5098 26.625C22.5098 27.1773 22.0621 27.625 21.5098 27.625H21.5C20.9477 27.625 20.5 27.1773 20.5 26.625C20.5 26.0727 20.9477 25.625 21.5 25.625H21.5098Z" fill="black"/>
</g>
<defs>
<clipPath id="clip0_509_6530">
<rect width="43" height="43" rx="21.5" fill="white"/>
</clipPath>
</defs>
</svg>
