<svg width="20" height="20" viewBox="0 0 20 20" fill="none" xmlns="http://www.w3.org/2000/svg">
<g clip-path="url(#clip0_180_226)">
<path d="M18.7533 0.94301C19.0112 0.795668 19.3284 0.796852 19.5853 0.94594C19.8421 1.09508 20.0004 1.36969 20.0004 1.66664V14.9997C20.0004 15.2986 19.8399 15.5749 19.5804 15.7233L13.7465 19.0573C13.5046 19.1953 13.2094 19.2033 12.9603 19.0788L6.69177 15.944L1.24646 19.0573C0.988739 19.2043 0.672122 19.2032 0.415405 19.0543C0.15857 18.9053 0.000481872 18.6306 0.000366211 18.3336V4.99965C0.000482463 4.70073 0.160736 4.42433 0.420288 4.27602L6.2533 0.94301L6.34607 0.897112C6.56803 0.804604 6.82134 0.812482 7.03943 0.921526L13.307 4.05434L18.7533 0.94301ZM1.66638 5.48305V16.8971L6.2533 14.276L6.34607 14.2311C6.56808 14.1385 6.82127 14.1455 7.03943 14.2545L13.308 17.3883L18.3334 14.5153V3.10219L13.7465 5.72328C13.5046 5.86143 13.2095 5.87032 12.9603 5.74574L6.69275 2.61098L1.66638 5.48305Z" fill="black"/>
<path d="M5.83362 14.9997V1.66669C5.83362 1.20645 6.20639 0.833679 6.66663 0.833679C7.12686 0.833679 7.49963 1.20645 7.49963 1.66669V14.9997C7.49963 15.4599 7.12686 15.8337 6.66663 15.8337C6.20639 15.8337 5.83362 15.4599 5.83362 14.9997Z" fill="black"/>
<path d="M12.5004 18.333V5C12.5004 4.53976 12.8731 4.16699 13.3334 4.16699C13.7936 4.16699 14.1664 4.53976 14.1664 5V18.333C14.1664 18.7932 13.7936 19.167 13.3334 19.167C12.8731 19.167 12.5004 18.7932 12.5004 18.333Z" fill="black"/>
</g>
<defs>
<clipPath id="clip0_180_226">
<rect width="20" height="20" fill="white"/>
</clipPath>
</defs>
</svg>
