<svg width="20" height="20" viewBox="0 0 20 20" fill="none" xmlns="http://www.w3.org/2000/svg">
<path d="M15 9.16699C15 5.94544 12.3885 3.33318 9.16699 3.33301C5.94533 3.33301 3.33301 5.94533 3.33301 9.16699C3.33318 12.3885 5.94544 15 9.16699 15C12.3884 14.9998 14.9998 12.3884 15 9.16699ZM16.667 9.16699C16.6668 13.3089 13.3089 16.6668 9.16699 16.667C5.02497 16.667 1.66717 13.309 1.66699 9.16699C1.66699 5.02486 5.02486 1.66699 9.16699 1.66699C13.309 1.66717 16.667 5.02497 16.667 9.16699Z" fill="#AFC5D4"/>
<path d="M13.2861 13.2861C13.6116 12.9607 14.1384 12.9607 14.4639 13.2861L18.0889 16.9111C18.4143 17.2366 18.4143 17.7634 18.0889 18.0889C17.7634 18.4143 17.2366 18.4143 16.9111 18.0889L13.2861 14.4639C12.9607 14.1384 12.9607 13.6116 13.2861 13.2861Z" fill="#AFC5D4"/>
</svg>
