<svg width="43" height="43" viewBox="0 0 43 43" fill="none" xmlns="http://www.w3.org/2000/svg">
<path d="M23.0526 10.5C23.8375 10.5 24.4737 11.1567 24.4737 11.9667C24.4737 12.7767 23.8375 13.4333 23.0526 13.4333H7C6.21518 13.4333 5.57895 12.7767 5.57895 11.9667C5.57895 11.1566 6.21518 10.5 7 10.5H23.0526Z" fill="black"/>
<path d="M20.9211 11.9663V11.952C20.9211 10.737 21.8754 9.75201 23.0526 9.75201C24.2299 9.75201 25.1842 10.737 25.1842 11.952V11.9663C25.1842 13.1814 24.2299 14.1663 23.0526 14.1663C21.8754 14.1663 20.9211 13.1814 20.9211 11.9663Z" fill="black"/>
<path d="M8.55263 21.5143V21.5C8.55263 20.285 9.50697 19.3 10.6842 19.3C11.8614 19.3 12.8158 20.285 12.8158 21.5V21.5143C12.8158 22.7293 11.8614 23.7143 10.6842 23.7143C9.50697 23.7143 8.55263 22.7293 8.55263 21.5143Z" fill="black"/>
<path d="M32.5789 10.5C33.3638 10.5 34 11.1566 34 11.9667C34 12.7767 33.3638 13.4333 32.5789 13.4333H27.2108C27.2108 13.4333 27.7081 12.7767 27.7081 11.9667C27.7081 11.1566 27.2108 10.5 27.2108 10.5H32.5789Z" fill="black"/>
<path d="M10.6842 20.0333C11.469 20.0333 12.1053 20.69 12.1053 21.5C12.1053 22.31 11.469 22.9667 10.6842 22.9667H7C6.21518 22.9667 5.57895 22.31 5.57895 21.5C5.57895 20.69 6.21518 20.0333 7 20.0333H10.6842Z" fill="black"/>
<path d="M15.6947 29.5667C17.5254 29.5668 17.5254 32.4998 15.6947 32.5H7C6.21518 32.5 5.57895 31.8433 5.57895 31.0333C5.57895 30.2233 6.21518 29.5667 7 29.5667H15.6947Z" fill="black"/>
<path d="M17.8522 20.0333C19.6751 20.0333 19.6751 22.9667 17.8522 22.9667C17.0318 22.9667 14.8423 22.9667 14.8423 22.9667C14.8423 22.9667 15.3397 22.31 15.3397 21.5C15.3397 20.69 14.8423 20.0333 14.8423 20.0333C14.8423 20.0333 17.2879 20.0333 17.8522 20.0333Z" fill="black"/>
<path d="M31.4783 28.2037C31.4783 27.0991 30.5828 26.2037 29.4783 26.2037C28.3737 26.2037 27.4783 27.0991 27.4783 28.2037C27.4783 29.3082 28.3737 30.2037 29.4783 30.2037C30.5828 30.2037 31.4783 29.3082 31.4783 28.2037ZM33.4783 28.2037C33.4783 30.4128 31.6874 32.2037 29.4783 32.2037C27.2691 32.2037 25.4783 30.4128 25.4783 28.2037C25.4783 25.9945 27.2691 24.2037 29.4783 24.2037C31.6874 24.2037 33.4783 25.9945 33.4783 28.2037Z" fill="black"/>
<path d="M30.2966 20.022C30.2966 19.805 30.2098 19.5964 30.0564 19.4429C29.903 19.2897 29.6951 19.2037 29.4783 19.2037C29.2614 19.2037 29.0535 19.2897 28.9001 19.4429C28.7467 19.5964 28.6599 19.805 28.6599 20.022V20.1802C28.658 20.6676 28.5139 21.144 28.2449 21.5504C27.9757 21.9568 27.5933 22.2762 27.1452 22.4683C27.065 22.5027 26.9802 22.5242 26.8943 22.5367C26.4883 22.6781 26.0519 22.7134 25.6267 22.6363C25.1352 22.5472 24.681 22.3137 24.324 21.9644L24.3161 21.9566L24.2624 21.9019L24.2615 21.9009C24.1855 21.825 24.095 21.7653 23.9958 21.7242C23.8965 21.683 23.7899 21.6617 23.6824 21.6617C23.575 21.6617 23.469 21.6831 23.3699 21.7242C23.2707 21.7653 23.1802 21.825 23.1042 21.9009L23.1033 21.9019C23.0272 21.9779 22.9667 22.0682 22.9255 22.1675C22.8843 22.2669 22.863 22.3735 22.863 22.481C22.863 22.5885 22.8844 22.6952 22.9255 22.7945C22.9565 22.8691 22.9984 22.9384 23.0495 23.0005L23.1033 23.0601L23.1658 23.1226C23.515 23.4796 23.7494 23.933 23.8386 24.4244C23.9277 24.9159 23.8674 25.4234 23.6658 25.8804L23.6648 25.8795C23.4879 26.3254 23.1885 26.7122 22.7976 26.9918C22.3897 27.2835 21.9034 27.4458 21.4021 27.4576C21.3944 27.4578 21.3863 27.4586 21.3786 27.4586H21.2966C21.0796 27.4586 20.871 27.5444 20.7175 27.6978C20.5643 27.8511 20.4784 28.0592 20.4783 28.2759C20.4783 28.4929 20.5642 28.7016 20.7175 28.855C20.871 29.0085 21.0796 29.0943 21.2966 29.0943H21.4548C21.9423 29.0962 22.4185 29.2412 22.8249 29.5103C23.2285 29.7775 23.5455 30.1563 23.738 30.6002H23.739C23.9406 31.057 24 31.5639 23.9109 32.0552C23.8218 32.5467 23.5883 33.0009 23.239 33.358L23.2312 33.3658L23.1765 33.4195L23.1755 33.4205C23.0996 33.4964 23.0399 33.5869 22.9988 33.6861C22.9576 33.7854 22.9363 33.8921 22.9363 33.9996C22.9363 34.1069 22.9577 34.2129 22.9988 34.3121C23.0399 34.4113 23.0996 34.5018 23.1755 34.5777L23.1765 34.5787C23.2525 34.6547 23.3428 34.7152 23.4421 34.7564C23.5414 34.7976 23.6481 34.8189 23.7556 34.8189C23.8631 34.8189 23.9698 34.7976 24.0691 34.7564C24.1683 34.7152 24.2588 34.6547 24.3347 34.5787L24.3972 34.5162C24.7542 34.167 25.2076 33.9325 25.699 33.8433C26.1905 33.7542 26.698 33.8145 27.155 34.0162H27.154C27.6001 34.193 27.9867 34.4934 28.2663 34.8843C28.5581 35.2922 28.7203 35.7785 28.7322 36.2798C28.7323 36.2875 28.7331 36.2956 28.7331 36.3033V36.3853C28.7331 36.6023 28.819 36.811 28.9724 36.9644C29.1257 37.1176 29.3338 37.2036 29.5505 37.2037C29.7674 37.2037 29.9762 37.1178 30.1296 36.9644C30.2831 36.811 30.3689 36.6023 30.3689 36.3853V36.2271C30.3708 35.7397 30.5158 35.2634 30.7849 34.857C31.0522 34.4534 31.4307 34.1354 31.8747 33.9429L32.0476 33.8746C32.4576 33.729 32.8996 33.6931 33.3298 33.7711C33.7599 33.849 34.1611 34.0378 34.4939 34.3179L34.6326 34.4429L34.6404 34.4507L34.6941 34.5054L34.6951 34.5064C34.771 34.5823 34.8615 34.642 34.9607 34.6832C35.06 34.7243 35.1667 34.7457 35.2742 34.7457C35.3815 34.7456 35.4875 34.7242 35.5867 34.6832C35.6858 34.6421 35.7764 34.5823 35.8523 34.5064L35.8533 34.5054C35.9293 34.4295 35.9898 34.3391 36.031 34.2398C36.0722 34.1405 36.0935 34.0339 36.0935 33.9263C36.0935 33.8188 36.0722 33.7122 36.031 33.6129C36 33.5383 35.9581 33.4689 35.907 33.4068L35.8533 33.3472L35.7908 33.2847C35.4415 32.9277 35.2071 32.4743 35.1179 31.983C35.0399 31.5529 35.076 31.1106 35.2214 30.7007L35.2908 30.5269C35.4833 30.0831 35.8004 29.7043 36.2038 29.4371C36.6102 29.168 37.0866 29.024 37.574 29.022H37.6599C37.8769 29.022 38.0856 28.9352 38.239 28.7818C38.3922 28.6284 38.4783 28.4205 38.4783 28.2037C38.4783 27.9869 38.3922 27.779 38.239 27.6255C38.0856 27.4721 37.8769 27.3853 37.6599 27.3853H37.5017C37.0143 27.3834 36.538 27.2393 36.1316 26.9703C35.7252 26.7011 35.4057 26.3187 35.2136 25.8707C35.1792 25.7904 35.1567 25.7057 35.1443 25.6197C35.003 25.2138 34.9686 24.7773 35.0456 24.3521C35.1348 23.8606 35.3682 23.4065 35.7175 23.0494L35.7253 23.0416L35.78 22.9879L35.781 22.9869C35.8569 22.9109 35.9166 22.8205 35.9577 22.7213C35.9989 22.6219 36.0202 22.5153 36.0202 22.4078C36.0202 22.3005 35.9988 22.1944 35.9577 22.0953C35.9166 21.9961 35.8569 21.9056 35.781 21.8297L35.78 21.8287C35.704 21.7526 35.6137 21.6921 35.5144 21.6509C35.4151 21.6098 35.3084 21.5884 35.2009 21.5884C35.0934 21.5884 34.9867 21.6098 34.8874 21.6509C34.8128 21.6819 34.7435 21.7239 34.6814 21.775L34.6218 21.8287L34.5593 21.8912C34.2023 22.2404 33.7489 22.4749 33.2576 22.564C32.766 22.6531 32.2585 22.5929 31.8015 22.3912V22.3902C31.3579 22.1977 30.9788 21.8814 30.7117 21.4781C30.4426 21.0717 30.2986 20.5954 30.2966 20.108V20.022ZM32.2966 20.1002L32.3025 20.1724C32.3133 20.244 32.3393 20.3127 32.3796 20.3736C32.4334 20.4549 32.5098 20.5188 32.5993 20.5572L32.6091 20.5611C32.7004 20.6014 32.8019 20.614 32.9001 20.5963C32.9984 20.5784 33.0895 20.5313 33.1609 20.4615L33.2077 20.4146C33.4694 20.1529 33.7799 19.945 34.1218 19.8033C34.4639 19.6615 34.8306 19.5884 35.2009 19.5884C35.5712 19.5884 35.9379 19.6615 36.28 19.8033C36.6219 19.945 36.9325 20.1529 37.1941 20.4146L37.3806 20.6197C37.5561 20.8334 37.6991 21.0723 37.8054 21.3287C37.9472 21.6707 38.0202 22.0376 38.0202 22.4078C38.0202 22.7781 37.9472 23.1457 37.8054 23.4879C37.6991 23.7442 37.5561 23.9832 37.3806 24.1968L37.1941 24.4019L37.1404 24.4566C37.0748 24.5267 37.0306 24.614 37.0134 24.7086C36.9956 24.8068 37.0074 24.9083 37.0476 24.9996C37.0723 25.0555 37.0902 25.1142 37.1042 25.1734C37.1397 25.2236 37.1833 25.268 37.2351 25.3023C37.3164 25.3561 37.412 25.3849 37.5095 25.3853H37.6599C38.4073 25.3853 39.1246 25.6821 39.6531 26.2105C40.1816 26.739 40.4783 27.4562 40.4783 28.2037C40.4783 28.9511 40.1816 29.6683 39.6531 30.1968C39.1246 30.7253 38.4073 31.022 37.6599 31.022H37.5818L37.5095 31.0279C37.4379 31.0387 37.3692 31.0647 37.3083 31.105C37.2271 31.1589 37.1632 31.2352 37.1247 31.3248L37.1208 31.3345C37.0805 31.4258 37.0679 31.5273 37.0857 31.6255C37.1035 31.7239 37.1506 31.8149 37.2204 31.8863L37.2663 31.9322C37.5284 32.1939 37.7368 32.5051 37.8786 32.8472C38.0204 33.1893 38.0935 33.556 38.0935 33.9263C38.0935 34.2966 38.0204 34.6634 37.8786 35.0054C37.7369 35.3473 37.5281 35.6569 37.2663 35.9185L37.2673 35.9195C37.0057 36.1813 36.6952 36.389 36.3533 36.5308C36.0113 36.6726 35.6444 36.7456 35.2742 36.7457C34.9038 36.7457 34.5362 36.6726 34.1941 36.5308C33.9378 36.4245 33.6988 36.2815 33.4851 36.106L33.28 35.9195L33.2253 35.8658H33.2243C33.1544 35.8005 33.0677 35.756 32.9734 35.7388C32.8752 35.721 32.7737 35.7328 32.6824 35.773L32.6726 35.7779V35.7769C32.583 35.8153 32.5057 35.8792 32.4519 35.9605C32.398 36.0418 32.3693 36.1374 32.3689 36.2349V36.3853C32.3689 37.1327 32.0722 37.85 31.5437 38.3785C31.0152 38.9069 30.2979 39.2037 29.5505 39.2037C28.8033 39.2036 28.0867 38.9068 27.5583 38.3785C27.0298 37.85 26.7331 37.1327 26.7331 36.3853V36.3267L26.7253 36.2525C26.7125 36.1791 26.6841 36.1086 26.6404 36.0474C26.5821 35.9659 26.5 35.9043 26.406 35.8697C26.3863 35.8625 26.3666 35.8547 26.3474 35.8463C26.2561 35.806 26.1546 35.7933 26.0564 35.8111C25.9581 35.8289 25.8671 35.876 25.7956 35.9459L25.7488 35.9927C25.4872 36.2545 25.1766 36.4623 24.8347 36.6041C24.4926 36.7459 24.1259 36.8189 23.7556 36.8189C23.3853 36.8189 23.0186 36.7458 22.6765 36.6041C22.3344 36.4622 22.0232 36.2538 21.7615 35.9918V35.9908C21.5003 35.7295 21.2926 35.4199 21.1511 35.0787C21.0093 34.7367 20.9363 34.3698 20.9363 33.9996C20.9363 33.6292 21.0093 33.2616 21.1511 32.9195C21.2929 32.5776 21.5006 32.267 21.7624 32.0054L21.8161 31.9507C21.8817 31.8807 21.9259 31.7934 21.9431 31.6988C21.9609 31.6006 21.9491 31.4991 21.9089 31.4078L21.904 31.398V31.397C21.8656 31.3077 21.8025 31.231 21.7214 31.1773C21.6604 31.1369 21.5911 31.1109 21.5193 31.1002L21.447 31.0943H21.2966C20.5492 31.0943 19.832 30.7976 19.3035 30.2691C18.775 29.7406 18.4783 29.0233 18.4783 28.2759C18.4784 27.5288 18.7752 26.8121 19.3035 26.2838C19.832 25.7552 20.5492 25.4586 21.2966 25.4586H21.3552C21.4554 25.4561 21.553 25.4241 21.6345 25.3658C21.716 25.3075 21.7776 25.2254 21.8122 25.1314L21.8357 25.0728C21.876 24.9815 21.8886 24.88 21.8708 24.7818C21.853 24.6835 21.8059 24.5925 21.7361 24.5211L21.6892 24.4742V24.4732C21.4277 24.2117 21.2195 23.9018 21.0779 23.5601C20.9361 23.218 20.863 22.8513 20.863 22.481C20.863 22.1107 20.9361 21.744 21.0779 21.4019C21.2197 21.0598 21.4281 20.7486 21.6902 20.4869C21.9516 20.2255 22.2618 20.0181 22.6033 19.8765C22.9452 19.7348 23.3122 19.6617 23.6824 19.6617C24.0527 19.6617 24.4203 19.7347 24.7624 19.8765C25.1043 20.0183 25.4149 20.226 25.6765 20.4879L25.7292 20.5396C25.7996 20.6063 25.8877 20.6511 25.9831 20.6685C26.0813 20.6863 26.1828 20.6746 26.2742 20.6343L26.3718 20.5972C26.3969 20.5892 26.4224 20.5828 26.448 20.5767C26.498 20.5413 26.5427 20.4985 26.5769 20.4468C26.63 20.3666 26.6588 20.2725 26.6599 20.1763V20.022C26.6599 19.2746 26.9566 18.5574 27.4851 18.0289C28.0136 17.5004 28.7308 17.2037 29.4783 17.2037C30.2257 17.2037 30.9429 17.5004 31.4714 18.0289C31.9999 18.5574 32.2966 19.2746 32.2966 20.022V20.1002Z" fill="black"/>
</svg>
