<svg width="20" height="20" viewBox="0 0 20 20" fill="none" xmlns="http://www.w3.org/2000/svg">
<path d="M9.25283 3.18051C9.55852 2.56121 10.4416 2.56121 10.7473 3.18051L12.3814 6.4909C12.5027 6.7366 12.737 6.90699 13.0081 6.94662L16.6636 7.48092C17.3469 7.58079 17.6192 8.42066 17.1245 8.90246L14.4807 11.4775C14.2842 11.6689 14.1945 11.9449 14.2408 12.2153L14.8646 15.8522C14.9814 16.533 14.2667 17.0521 13.6554 16.7306L10.388 15.0123C10.1451 14.8846 9.85502 14.8846 9.61221 15.0123L6.34477 16.7306C5.73342 17.0521 5.01879 16.533 5.13556 15.8522L5.75932 12.2153C5.8057 11.9449 5.71599 11.6689 5.51942 11.4775L2.87565 8.90246C2.38099 8.42066 2.65331 7.58079 3.33657 7.48092L6.99205 6.94662C7.26318 6.90699 7.4975 6.7366 7.61879 6.4909L9.25283 3.18051Z" fill="#F58549"/>
</svg>
