<svg width="16" height="16" viewBox="0 0 16 16" fill="none" xmlns="http://www.w3.org/2000/svg">
<path d="M11.5283 3.52827C11.7887 3.26792 12.2113 3.26792 12.4717 3.52827C12.732 3.78862 12.732 4.21128 12.4717 4.47163L4.47169 12.4716C4.21134 12.732 3.78868 12.732 3.52833 12.4716C3.26798 12.2113 3.26798 11.7886 3.52833 11.5283L11.5283 3.52827Z" fill="#AFC5D4"/>
<path d="M3.52833 3.52827C3.78868 3.26792 4.21134 3.26792 4.47169 3.52827L12.4717 11.5283C12.732 11.7886 12.732 12.2113 12.4717 12.4716C12.2113 12.732 11.7887 12.732 11.5283 12.4716L3.52833 4.47163C3.26798 4.21128 3.26798 3.78862 3.52833 3.52827Z" fill="#AFC5D4"/>
</svg>
