<svg width="20" height="20" viewBox="0 0 20 20" fill="none" xmlns="http://www.w3.org/2000/svg">
<path d="M16.6664 5.83301L8.33337 5.83301C7.87314 5.83301 7.50037 5.46024 7.50037 5C7.50037 4.53976 7.87314 4.16699 8.33337 4.16699L16.6664 4.16699C17.1266 4.16699 17.5004 4.53976 17.5004 5C17.5004 5.46024 17.1266 5.83301 16.6664 5.83301Z" fill="#F58549"/>
<path d="M16.6664 10.833L3.33337 10.833C2.87314 10.833 2.50037 10.4602 2.50037 10C2.50037 9.53976 2.87314 9.16699 3.33337 9.16699L16.6664 9.16699C17.1266 9.16699 17.5004 9.53976 17.5004 10C17.5004 10.4602 17.1266 10.833 16.6664 10.833Z" fill="#F58549"/>
<path d="M16.6666 15.833L11.6666 15.833C11.2064 15.833 10.8336 15.4602 10.8336 15C10.8336 14.5398 11.2064 14.167 11.6666 14.167L16.6666 14.167C17.1269 14.167 17.4996 14.5398 17.4996 15C17.4996 15.4602 17.1269 15.833 16.6666 15.833Z" fill="#F58549"/>
</svg>
